<?xml version="1.0" standalone="no"?>
<!DOCTYPE svg PUBLIC "-//W3C//DTD SVG 20010904//EN"
 "http://www.w3.org/TR/2001/REC-SVG-20010904/DTD/svg10.dtd">
<svg version="1.0" xmlns="http://www.w3.org/2000/svg"
 width="1080.000000pt" height="1080.000000pt" viewBox="0 0 1080.000000 1080.000000"
 preserveAspectRatio="xMidYMid meet">
<metadata>
Created by potrace 1.14, written by Peter Selinger 2001-2017
</metadata>
<g transform="translate(0.000000,1080.000000) scale(0.100000,-0.100000)"
fill="#000000" stroke="none">
<path d="M0 5400 l0 -5400 5400 0 5400 0 0 5400 0 5400 -5400 0 -5400 0 0
-5400z m5860 4456 c742 -81 1412 -322 2025 -731 935 -624 1600 -1572 1866
-2662 90 -370 123 -655 123 -1063 0 -215 -5 -338 -18 -455 -82 -747 -319
-1409 -720 -2015 -332 -501 -752 -922 -1251 -1255 -615 -410 -1273 -647 -2033
-732 -219 -24 -686 -24 -907 1 -755 83 -1416 321 -2030 731 -926 618 -1590
1558 -1860 2635 -275 1097 -122 2274 422 3253 558 1004 1466 1751 2553 2102
346 111 710 179 1120 209 116 8 572 -4 710 -18z"/>
<path d="M4975 9654 c-517 -51 -1042 -204 -1505 -439 -166 -85 -167 -85 -148
-116 9 -13 34 -56 57 -95 l41 -72 122 63 c416 215 891 363 1348 419 95 12 394
36 453 36 4 0 7 50 7 110 l0 110 -117 -1 c-65 -1 -181 -7 -258 -15z"/>
<path d="M5450 9560 c0 -60 3 -110 8 -110 58 0 357 -24 452 -36 457 -56 932
-204 1348 -419 l122 -63 41 72 c23 39 48 82 57 95 19 31 18 31 -148 116 -471
239 -990 389 -1519 439 -91 9 -209 16 -263 16 l-98 0 0 -110z"/>
<path d="M5090 9334 c-19 -2 -80 -9 -135 -15 -1101 -117 -2130 -728 -2781
-1649 -379 -536 -609 -1142 -696 -1830 -18 -143 -18 -737 0 -880 75 -592 249
-1106 540 -1590 273 -455 660 -874 1097 -1185 544 -388 1149 -619 1845 -707
143 -18 737 -18 880 0 939 118 1732 507 2376 1163 624 638 991 1407 1106 2319
18 143 18 737 0 880 -62 490 -184 903 -390 1315 -385 771 -1006 1392 -1777
1778 -400 199 -782 315 -1265 383 -109 15 -706 29 -800 18z m-665 -1415 c127
-194 232 -356 233 -360 2 -5 -82 -9 -187 -9 l-190 0 -31 45 -31 45 -185 0
-184 0 -28 -45 -27 -45 -153 0 c-85 0 -152 4 -150 9 2 4 104 166 228 360 l225
351 125 0 125 0 230 -351z m1475 266 l0 -85 -180 0 -180 0 -2 -272 -3 -273
-172 -3 -173 -2 0 275 0 275 -182 2 -183 3 -3 83 -3 82 541 0 540 0 0 -85z
m690 -190 l0 -275 360 0 360 0 0 -85 0 -85 -535 0 -535 0 0 360 0 360 175 0
175 0 0 -275z m-2815 -1150 c110 -23 273 -78 381 -129 87 -41 254 -142 254
-153 0 -8 -321 -533 -326 -533 -2 0 -47 29 -98 65 -189 131 -327 180 -506 180
-109 0 -118 -2 -168 -30 -85 -46 -137 -123 -163 -240 -20 -87 -20 -1123 0
-1210 26 -117 78 -194 163 -240 50 -28 59 -30 168 -30 179 0 317 49 506 180
51 36 96 65 98 65 5 0 326 -524 326 -532 0 -12 -166 -112 -254 -154 -109 -52
-270 -106 -386 -131 -127 -27 -389 -24 -530 7 -240 51 -410 138 -556 284 -141
141 -223 298 -282 536 -25 103 -25 112 -29 564 -5 488 -1 553 42 722 114 451
447 733 933 793 108 14 332 6 427 -14z m2001 -20 c4 -9 70 -369 149 -800 78
-432 145 -788 149 -792 3 -3 7 -4 9 -2 2 2 79 355 171 784 92 429 170 790 173
803 l5 22 344 0 344 0 10 -22 c5 -13 18 -68 28 -123 36 -191 295 -1460 298
-1464 2 -2 7 -2 10 2 4 4 243 1122 320 1497 8 41 17 83 20 93 5 16 29 17 315
17 215 0 309 -3 309 -11 0 -8 -631 -2703 -667 -2847 l-5 -22 -327 2 -326 3
-180 765 c-184 778 -189 799 -197 790 -2 -3 -84 -351 -182 -775 -98 -423 -180
-773 -183 -777 -2 -5 -150 -8 -328 -8 l-323 0 -5 23 c-36 141 -657 2832 -657
2843 0 22 718 21 726 -1z m-736 -1390 l0 -275 -385 0 -385 0 0 275 0 275 385
0 385 0 0 -275z m-1085 -2036 c88 -15 90 -18 64 -71 l-22 -45 -45 13 c-26 8
-91 14 -154 14 -99 0 -109 -2 -106 -17 3 -16 20 -19 133 -24 136 -6 171 -15
210 -59 14 -16 20 -36 20 -70 0 -40 -5 -54 -29 -79 -46 -48 -84 -56 -246 -55
-137 1 -259 19 -282 42 -5 5 6 27 23 50 l31 42 31 -17 c25 -13 59 -17 157 -18
118 0 125 1 125 20 0 19 -9 20 -125 26 -177 8 -230 36 -230 122 0 68 38 111
115 130 39 9 269 7 330 -4z m2384 0 c35 -5 79 -16 98 -24 l34 -15 -32 -47
c-18 -27 -33 -49 -35 -51 -1 -2 -22 7 -46 19 -33 17 -61 22 -121 23 -77 1 -79
0 -108 -32 -40 -44 -40 -93 0 -133 28 -27 34 -29 108 -29 56 0 90 6 122 20 24
11 44 20 45 20 2 0 18 -21 36 -46 31 -44 32 -48 15 -60 -47 -35 -302 -51 -391
-26 -50 15 -100 48 -128 85 -28 39 -34 140 -9 186 53 101 211 143 412 110z
m-1839 -149 l0 -150 195 0 195 0 0 -45 0 -45 -287 2 -288 3 -3 193 -2 192 95
0 95 0 0 -150z m1108 -39 c67 -103 122 -191 122 -194 0 -4 -45 -7 -100 -7 -95
0 -100 1 -116 25 -16 24 -21 25 -115 25 -94 0 -99 -1 -115 -25 -15 -23 -22
-25 -95 -25 -44 0 -79 4 -79 8 0 5 37 67 83 138 46 71 100 155 120 187 l37 57
67 0 68 -1 123 -188z m1302 114 c0 -41 3 -75 6 -75 3 0 45 34 93 75 l88 75 99
0 99 -1 -50 -42 c-27 -23 -65 -56 -84 -73 l-34 -31 84 -109 c47 -60 88 -115
93 -121 5 -10 -14 -13 -87 -13 l-95 0 -56 75 -57 76 -47 -41 c-32 -29 -49 -52
-52 -73 l-5 -32 -92 -3 -93 -3 0 196 0 195 95 0 95 0 0 -75z m-1669 -891 c33
-19 81 -53 109 -75 l49 -39 70 53 c79 59 157 104 166 95 10 -10 -40 -100 -95
-171 l-50 -66 50 -66 c52 -68 105 -163 97 -172 -9 -8 -104 46 -171 97 l-66 51
-66 -51 c-68 -52 -162 -105 -171 -96 -9 9 39 93 94 166 l53 71 -51 66 c-43 56
-99 151 -99 168 0 12 26 3 81 -31z"/>
<path d="M3992 7866 l-41 -66 85 0 85 0 -23 40 c-13 22 -32 52 -44 66 l-20 27
-42 -67z"/>
<path d="M5375 3180 l-16 -30 40 0 40 0 -17 30 c-21 37 -28 37 -47 0z"/>
<path d="M3120 9017 c-287 -186 -502 -359 -731 -587 -260 -259 -445 -490 -626
-782 l-42 -67 57 -32 c31 -17 76 -42 98 -56 l42 -24 105 158 c316 474 676 834
1150 1150 l158 105 -24 42 c-14 22 -39 67 -57 99 -17 31 -33 57 -33 56 -1 0
-45 -28 -97 -62z"/>
<path d="M7549 9022 c-17 -31 -42 -76 -56 -98 l-24 -42 158 -105 c474 -316
834 -676 1150 -1150 l105 -158 42 24 c22 14 67 39 98 56 l57 32 -62 97 c-180
284 -354 500 -597 742 -242 243 -458 417 -742 597 l-97 62 -32 -57z"/>
<path d="M1647 7448 c-150 -258 -312 -673 -396 -1018 -72 -294 -121 -651 -121
-882 l0 -98 110 0 c61 0 110 3 110 8 0 58 24 357 36 452 56 457 204 932 419
1348 l63 122 -72 41 c-39 23 -81 48 -93 55 -12 8 -24 14 -27 14 -2 0 -15 -19
-29 -42z"/>
<path d="M9095 7476 c-11 -8 -52 -32 -91 -55 l-72 -41 63 -122 c215 -416 361
-887 419 -1348 12 -95 36 -393 36 -452 0 -5 50 -8 110 -8 l110 0 0 98 c0 132
-26 394 -56 572 -54 318 -154 658 -280 953 -71 167 -193 409 -209 413 -6 2
-19 -3 -30 -10z"/>
<path d="M1130 5252 c0 -186 32 -461 81 -705 77 -377 200 -732 369 -1067 90
-177 90 -177 121 -158 13 9 56 34 95 57 l72 41 -63 122 c-215 416 -363 891
-419 1348 -12 95 -36 394 -36 453 0 4 -49 7 -110 7 l-110 0 0 -98z"/>
<path d="M9450 5343 c0 -59 -24 -358 -36 -453 -56 -457 -204 -932 -419 -1348
l-63 -122 72 -41 c39 -23 82 -48 95 -57 31 -19 31 -19 120 158 236 464 385
984 435 1509 9 91 16 209 16 263 l0 98 -110 0 c-60 0 -110 -3 -110 -7z"/>
<path d="M1818 3274 l-97 -56 62 -96 c180 -284 354 -500 597 -742 242 -243
458 -417 742 -597 l97 -62 32 57 c17 31 42 76 56 98 l24 42 -158 105 c-474
316 -834 676 -1150 1150 -57 86 -105 157 -106 157 -1 -1 -46 -26 -99 -56z"/>
<path d="M8777 3173 c-321 -482 -696 -854 -1176 -1168 l-132 -86 24 -42 c14
-23 39 -68 56 -99 l32 -57 97 62 c284 180 500 354 742 597 252 251 435 481
623 782 l36 57 -57 32 c-31 17 -76 42 -98 56 l-42 24 -105 -158z"/>
<path d="M3379 1796 c-23 -39 -48 -82 -57 -95 -19 -31 -18 -31 148 -116 471
-239 990 -389 1519 -439 91 -9 209 -16 263 -16 l98 0 0 110 c0 61 -3 110 -7
110 -71 0 -365 25 -482 40 -455 60 -907 202 -1319 415 l-122 63 -41 -72z"/>
<path d="M7275 1814 c-398 -212 -905 -371 -1365 -428 -95 -12 -394 -36 -452
-36 -5 0 -8 -49 -8 -110 l0 -110 98 0 c54 0 172 7 263 16 528 50 1049 201
1519 439 182 93 171 75 110 180 -28 50 -55 93 -58 96 -4 3 -52 -18 -107 -47z"/>
</g>
</svg>
